<svg height="1998" width="720" xmlns="http://www.w3.org/2000/svg">
<rect height="1998" fill="#555" width="720"></rect>
<text fill="#7f7" font-family="Courier New" font-size="12" xml:space="preserve">
<tspan x="10" y="26"></tspan>
<tspan x="10" y="42">&gt; npmdoc-when@0.0.1 test /home/travis/build/npmdoc/node-npmdoc-when</tspan>
<tspan x="10" y="58">&gt; (set -e; export PORT=$(utility2 shServerPortRandom); utility2 test test.js)</tspan>
<tspan x="10" y="74"></tspan>
<tspan x="10" y="90"></tspan>
<tspan x="10" y="106">[MODE_BUILD=npmTest] - 2017-04-02T18:05:47Z - npm-testing /home/travis/build/npmdoc/node-npmdoc-\</tspan>
<tspan x="10" y="122">when</tspan>
<tspan x="10" y="138"></tspan>
<tspan x="10" y="154"></tspan>
<tspan x="10" y="170">covering $ /home/travis/.nvm/versions/node/v6.10.1/bin/node /home/travis/build/npmdoc/node-npmdo\</tspan>
<tspan x="10" y="186">c-when/test.js</tspan>
<tspan x="10" y="202">merging file:///home/travis/build/npmdoc/node-npmdoc-when/tmp/build/test-report.json to test-rep\</tspan>
<tspan x="10" y="218">ort</tspan>
<tspan x="10" y="234">&gt; server listening on http-port 33402</tspan>
<tspan x="10" y="250">created apidoc file:///home/travis/build/npmdoc/node-npmdoc-when/tmp/build/apidoc.html</tspan>
<tspan x="10" y="266"></tspan>
<tspan x="10" y="282"></tspan>
<tspan x="10" y="298">browserTest - created electron entry-page /home/travis/build/npmdoc/node-npmdoc-when/tmp/electro\</tspan>
<tspan x="10" y="314">n.15b2fd82e710.7d381f1257f6e.html</tspan>
<tspan x="10" y="330"></tspan>
<tspan x="10" y="346">Xlib:  extension "RANDR" missing on display ":99.0".</tspan>
<tspan x="10" y="362">[node test-case 1 of 6 passed] - testCase_buildLib_default</tspan>
<tspan x="10" y="378">[node test-case 2 of 6 passed] - testCase_buildReadme_default</tspan>
<tspan x="10" y="394">[node test-case 3 of 6 passed] - testCase_buildTest_default</tspan>
<tspan x="10" y="410"></tspan>
<tspan x="10" y="426">browserTest - created electron entry-page /home/travis/build/npmdoc/node-npmdoc-when/tmp/electro\</tspan>
<tspan x="10" y="442">n.15b2fd82f970.095b4f35a911b.html</tspan>
<tspan x="10" y="458"></tspan>
<tspan x="10" y="474">Xlib:  extension "RANDR" missing on display ":99.0".</tspan>
<tspan x="10" y="490">merging file:///home/travis/build/npmdoc/node-npmdoc-when/tmp/build/test-report.json to test-rep\</tspan>
<tspan x="10" y="506">ort</tspan>
<tspan x="10" y="522">Xlib:  extension "RANDR" missing on display ":99.0".</tspan>
<tspan x="10" y="538">[5978:0402/180549:WARNING:audio_manager.cc(314)] Multiple instances of AudioManager detected</tspan>
<tspan x="10" y="554">[5978:0402/180549:WARNING:audio_manager.cc(275)] Multiple instances of AudioManager detected</tspan>
<tspan x="10" y="570">[6021:0402/180549:ERROR:sandbox_linux.cc(343)] InitializeSandbox() called with multiple threads \</tspan>
<tspan x="10" y="586">in process gpu-process. </tspan>
<tspan x="10" y="602">[5978:0402/180549:ERROR:browser_gpu_channel_host_factory.cc(131)] Failed to create channel.</tspan>
<tspan x="10" y="618">merging file:///home/travis/build/npmdoc/node-npmdoc-when/tmp/build/test-report.json to test-rep\</tspan>
<tspan x="10" y="634">ort</tspan>
<tspan x="10" y="650">Xlib:  extension "RANDR" missing on display ":99.0".</tspan>
<tspan x="10" y="666">[5993:0402/180549:WARNING:audio_manager.cc(314)] Multiple instances of AudioManager detected</tspan>
<tspan x="10" y="682">[5993:0402/180549:WARNING:audio_manager.cc(275)] Multiple instances of AudioManager detected</tspan>
<tspan x="10" y="698">&gt; server listening on http-port 54742</tspan>
<tspan x="10" y="714">[6051:0402/180549:ERROR:sandbox_linux.cc(343)] InitializeSandbox() called with multiple threads \</tspan>
<tspan x="10" y="730">in process gpu-process. </tspan>
<tspan x="10" y="746">[5993:0402/180549:ERROR:browser_gpu_channel_host_factory.cc(131)] Failed to create channel.</tspan>
<tspan x="10" y="762"></tspan>
<tspan x="10" y="778">browserTest - opened url /home/travis/build/npmdoc/node-npmdoc-when/tmp/build/apidoc.html</tspan>
<tspan x="10" y="794"></tspan>
<tspan x="10" y="810"></tspan>
<tspan x="10" y="826">browserTest - opened url http://127.0.0.1:33402?modeTest=1</tspan>
<tspan x="10" y="842"></tspan>
<tspan x="10" y="858">[5993:0402/180551:INFO:CONSOLE(245)] "----------|-----------|-----------|-----------|-----------\</tspan>
<tspan x="10" y="874">|</tspan>
<tspan x="10" y="890">File      |   % Stmts |% Branches |   % Funcs |   % Lines |</tspan>
<tspan x="10" y="906">----------|-----------|-----------|-----------|-----------|</tspan>
<tspan x="10" y="922">----------|-----------|-----------|-----------|-----------|</tspan>
<tspan x="10" y="938">All files |       100 |       100 |       100 |       100 |</tspan>
<tspan x="10" y="954">----------|-----------|-----------|-----------|-----------|</tspan>
<tspan x="10" y="970">", source: file:///home/travis/build/npmdoc/node-npmdoc-when/tmp/electron.15b2fd82f970.095b4f35a\</tspan>
<tspan x="10" y="986">911b.html (245)</tspan>
<tspan x="10" y="1002">[5993:0402/180551:INFO:CONSOLE(245)] "created coverage file:///tmp/build/coverage.html/index.htm\</tspan>
<tspan x="10" y="1018">l", source: file:///home/travis/build/npmdoc/node-npmdoc-when/tmp/electron.15b2fd82f970.095b4f35\</tspan>
<tspan x="10" y="1034">a911b.html (245)</tspan>
<tspan x="10" y="1050">[node test-case 4 of 6 passed] - testCase_buildApp_default</tspan>
<tspan x="10" y="1066"></tspan>
<tspan x="10" y="1082">browserTest - created screen-capture file:///home/travis/build/npmdoc/node-npmdoc-when/tmp/build\</tspan>
<tspan x="10" y="1098">/screen-capture.npmTest.browser._2Fhome_2Ftravis_2Fbuild_2Fnpmdoc_2Fnode-npmdoc-when_2Ftmp_2Fbui\</tspan>
<tspan x="10" y="1114">ld_2Fapidoc.html.png</tspan>
<tspan x="10" y="1130"></tspan>
<tspan x="10" y="1146">browserTest - created screen-capture file:///home/travis/build/npmdoc/node-npmdoc-when/tmp/build\</tspan>
<tspan x="10" y="1162">/screen-capture.npmTest.browser._2Fhome_2Ftravis_2Fbuild_2Fnpmdoc_2Fnode-npmdoc-when_2Ftmp_2Fbui\</tspan>
<tspan x="10" y="1178">ld_2Fapidoc.html.html</tspan>
<tspan x="10" y="1194"></tspan>
<tspan x="10" y="1210">browserTest - exit-code 0 - /home/travis/build/npmdoc/node-npmdoc-when/tmp/build/apidoc.html</tspan>
<tspan x="10" y="1226"></tspan>
<tspan x="10" y="1242">[node test-case 5 of 6 passed] - testCase_buildApidoc_default</tspan>
<tspan x="10" y="1258"></tspan>
<tspan x="10" y="1274">browserTest - created screen-capture file:///home/travis/build/npmdoc/node-npmdoc-when/tmp/build\</tspan>
<tspan x="10" y="1290">/screen-capture.npmTest.browser..png</tspan>
<tspan x="10" y="1306"></tspan>
<tspan x="10" y="1322">browserTest - created screen-capture file:///home/travis/build/npmdoc/node-npmdoc-when/tmp/build\</tspan>
<tspan x="10" y="1338">/screen-capture.npmTest.browser..html</tspan>
<tspan x="10" y="1354"></tspan>
<tspan x="10" y="1370">browserTest - exit-code 0 - http://127.0.0.1:33402?modeTest=1</tspan>
<tspan x="10" y="1386"></tspan>
<tspan x="10" y="1402"></tspan>
<tspan x="10" y="1418">browserTest - merged coverage from /home/travis/build/npmdoc/node-npmdoc-when/tmp/coverage.npmTe\</tspan>
<tspan x="10" y="1434">st.browser.%2F.json</tspan>
<tspan x="10" y="1450"></tspan>
<tspan x="10" y="1466"></tspan>
<tspan x="10" y="1482">browserTest - merging test-report from /home/travis/build/npmdoc/node-npmdoc-when/tmp/test-repor\</tspan>
<tspan x="10" y="1498">t.npmTest.browser.%2F.json</tspan>
<tspan x="10" y="1514"></tspan>
<tspan x="10" y="1530">[node test-case 6 of 6 passed] - testCase_webpage_default</tspan>
<tspan x="10" y="1546">-------------------------|-----------|-----------|-----------|-----------|</tspan>
<tspan x="10" y="1562">File                     |   % Stmts |% Branches |   % Funcs |   % Lines |</tspan>
<tspan x="10" y="1578">-------------------------|-----------|-----------|-----------|-----------|</tspan>
<tspan x="10" y="1594">   node-npmdoc-when/     |       100 |       100 |       100 |       100 |</tspan>
<tspan x="10" y="1610">      example.js         |       100 |       100 |       100 |       100 |</tspan>
<tspan x="10" y="1626">      lib.npmdoc_when.js |       100 |       100 |       100 |       100 |</tspan>
<tspan x="10" y="1642">      test.js            |       100 |       100 |       100 |       100 |</tspan>
<tspan x="10" y="1658">-------------------------|-----------|-----------|-----------|-----------|</tspan>
<tspan x="10" y="1674">All files                |       100 |       100 |       100 |       100 |</tspan>
<tspan x="10" y="1690">-------------------------|-----------|-----------|-----------|-----------|</tspan>
<tspan x="10" y="1706"></tspan>
<tspan x="10" y="1722">created coverage file:///home/travis/build/npmdoc/node-npmdoc-when/tmp/build/coverage.html/index\</tspan>
<tspan x="10" y="1738">.html</tspan>
<tspan x="10" y="1754">merging file:///home/travis/build/npmdoc/node-npmdoc-when/tmp/build/test-report.json to test-rep\</tspan>
<tspan x="10" y="1770">ort</tspan>
<tspan x="10" y="1786"></tspan>
<tspan x="10" y="1802">-------------------------------------------------------</tspan>
<tspan x="10" y="1818">| test-report - buildNpmdoc - node - linux v6.10.1 - 2017-04-02T18:05:12.977Z</tspan>
<tspan x="10" y="1834">|   45444 ms            0 failed        6 passed      |</tspan>
<tspan x="10" y="1850">-------------------------------------------------------</tspan>
<tspan x="10" y="1866"></tspan>
<tspan x="10" y="1882">created test-report file:///home/travis/build/npmdoc/node-npmdoc-when/tmp/build/test-report.html</tspan>
<tspan x="10" y="1898"></tspan>
<tspan x="10" y="1914"></tspan>
<tspan x="10" y="1930">npmTest - 0 failed tests</tspan>
<tspan x="10" y="1946"></tspan>
<tspan x="10" y="1962"></tspan>
<tspan x="10" y="1978">[MODE_BUILD=npmTest] - 2017-04-02T18:06:01Z - EXIT_CODE - 0</tspan>
</text>
</svg>
